<svg width="16" height="16" viewBox="0 0 16 16" fill="none" xmlns="http://www.w3.org/2000/svg">
<path fill-rule="evenodd" clip-rule="evenodd" d="M12.6666 2.66663H3.33325C2.22868 2.66663 1.33325 3.56206 1.33325 4.66663V11.3333C1.33325 12.4379 2.22868 13.3333 3.33325 13.3333H12.6666C13.7712 13.3333 14.6666 12.4379 14.6666 11.3333V4.66663C14.6666 3.56206 13.7712 2.66663 12.6666 2.66663ZM12.3933 3.99996L8.47325 7.91996C8.34807 8.04617 8.17768 8.11716 7.99992 8.11716C7.82216 8.11716 7.65176 8.04617 7.52659 7.91996L3.60659 3.99996H12.3933ZM13.3333 11.3333C13.3333 11.7015 13.0348 12 12.6666 12H3.33325C2.96506 12 2.66659 11.7015 2.66659 11.3333V4.93996L6.58659 8.85996C7.36743 9.63983 8.6324 9.63983 9.41325 8.85996L13.3333 4.93996V11.3333Z" fill="#3E6AF2"/>
</svg>
