<svg width="16" height="16" viewBox="0 0 16 16" fill="none" xmlns="http://www.w3.org/2000/svg">
<path fill-rule="evenodd" clip-rule="evenodd" d="M7.99992 1.33337C4.31802 1.33337 1.33325 4.31814 1.33325 8.00004C1.33325 11.6819 4.31802 14.6667 7.99992 14.6667C11.6818 14.6667 14.6666 11.6819 14.6666 8.00004C14.6666 6.23193 13.9642 4.53624 12.714 3.286C11.4637 2.03575 9.76803 1.33337 7.99992 1.33337ZM8.66659 13.2867V12.6667C8.66659 12.2985 8.36811 12 7.99992 12C7.63173 12 7.33325 12.2985 7.33325 12.6667V13.2867C4.91979 12.9807 3.01931 11.0802 2.71325 8.66671H3.33325C3.70144 8.66671 3.99992 8.36823 3.99992 8.00004C3.99992 7.63185 3.70144 7.33337 3.33325 7.33337H2.71325C3.01931 4.91991 4.91979 3.01943 7.33325 2.71337V3.33337C7.33325 3.70156 7.63173 4.00004 7.99992 4.00004C8.36811 4.00004 8.66659 3.70156 8.66659 3.33337V2.71337C11.08 3.01943 12.9805 4.91991 13.2866 7.33337H12.6666C12.2984 7.33337 11.9999 7.63185 11.9999 8.00004C11.9999 8.36823 12.2984 8.66671 12.6666 8.66671H13.2866C12.9805 11.0802 11.08 12.9807 8.66659 13.2867ZM10.0933 5.03337L6.75992 6.44671C6.60453 6.51404 6.48058 6.63798 6.41325 6.79337L4.99992 10.1267C4.8925 10.3768 4.94792 10.6671 5.13992 10.86C5.26301 10.9857 5.43074 11.0575 5.60659 11.06C5.69883 11.0601 5.78993 11.0396 5.87325 11L9.20659 9.58671C9.36198 9.51938 9.48592 9.39543 9.55325 9.24004L10.9666 5.90671C11.072 5.65682 11.0155 5.36801 10.8237 5.17624C10.632 4.98448 10.3431 4.92799 10.0933 5.03337ZM8.43325 8.43337L6.91325 9.10004L7.57992 7.58004L9.09992 6.91337L8.43325 8.43337Z" fill="#3E6AF2"/>
</svg>
