<svg width="16" height="16" viewBox="0 0 16 16" fill="none" xmlns="http://www.w3.org/2000/svg">
<path fill-rule="evenodd" clip-rule="evenodd" d="M12.9601 8.66662C12.8134 8.66662 12.6601 8.61996 12.5134 8.58662C12.2164 8.52117 11.9245 8.43428 11.6401 8.32662C10.9996 8.09361 10.2865 8.38116 9.98675 8.99329L9.84008 9.29329C9.19075 8.93207 8.59407 8.48344 8.06675 7.95996C7.54326 7.43263 7.09463 6.83595 6.73341 6.18662L7.01341 5.99996C7.62555 5.70024 7.91309 4.98712 7.68008 4.34662C7.57423 4.06157 7.48737 3.76982 7.42008 3.47329C7.38675 3.32662 7.36008 3.17329 7.34008 3.01996C7.17283 2.0498 6.32444 1.34564 5.34008 1.35996H3.34008C2.75871 1.3545 2.20373 1.60229 1.8197 2.03881C1.43567 2.47533 1.2606 3.05735 1.34008 3.63329C2.0707 9.3788 6.60529 13.8969 12.3534 14.6066H12.6067C13.0984 14.6073 13.573 14.427 13.9401 14.1C14.3667 13.7184 14.6094 13.1723 14.6067 12.6V10.6C14.5899 9.645 13.9002 8.83521 12.9601 8.66662ZM13.2934 12.6666C13.2932 12.8581 13.2106 13.0402 13.0667 13.1666C12.9161 13.2967 12.7176 13.3572 12.5201 13.3333C7.3841 12.6748 3.34756 8.619 2.71341 3.47996C2.69197 3.28262 2.75219 3.0851 2.88008 2.93329C3.00646 2.78943 3.1886 2.70686 3.38008 2.70662H5.38008C5.69988 2.69951 5.97965 2.92053 6.04675 3.23329C6.07341 3.41551 6.10675 3.59551 6.14675 3.77329C6.22376 4.12472 6.32625 4.47008 6.45341 4.80662L5.52008 5.23996C5.3589 5.3139 5.23383 5.44902 5.17253 5.61542C5.11122 5.78182 5.11874 5.96578 5.19341 6.12662C6.15288 8.18179 7.80491 9.83382 9.86008 10.7933C10.0224 10.86 10.2044 10.86 10.3667 10.7933C10.5347 10.7332 10.6716 10.6084 10.7467 10.4466L11.1601 9.51329C11.5047 9.63654 11.8565 9.73895 12.2134 9.81995C12.3912 9.85995 12.5712 9.89329 12.7534 9.91996C13.0662 9.98705 13.2872 10.2668 13.2801 10.5866L13.2934 12.6666Z" fill="#3E6AF2"/>
</svg>
